<svg width="250" height="111" viewBox="0 0 250 111" fill="none" xmlns="http://www.w3.org/2000/svg">
<path d="M49.1445 54.8086C49.1445 60.5977 48.0664 65.4375 45.9102 69.3281C43.7539 73.1953 40.625 76.1133 36.5234 78.082C32.4219 80.0273 27.4766 81 21.6875 81H7.41406V29.6016H23.2344C28.5547 29.6016 33.1484 30.5625 37.0156 32.4844C40.8828 34.3828 43.8711 37.207 45.9805 40.957C48.0898 44.6836 49.1445 49.3008 49.1445 54.8086ZM40.3555 55.0547C40.3555 50.8359 39.6875 47.3672 38.3516 44.6484C37.0391 41.9297 35.0938 39.9141 32.5156 38.6016C29.9609 37.2656 26.8086 36.5977 23.0586 36.5977H15.8516V73.9336H21.8281C28.0391 73.9336 32.6797 72.3516 35.75 69.1875C38.8203 66.0234 40.3555 61.3125 40.3555 55.0547ZM74.8789 41.3438C78.3477 41.3438 81.3242 42.0586 83.8086 43.4883C86.293 44.918 88.2031 46.9453 89.5391 49.5703C90.875 52.1953 91.543 55.3359 91.543 58.9922V63.4219H65.5625C65.6562 67.1953 66.6641 70.1016 68.5859 72.1406C70.5312 74.1797 73.25 75.1992 76.7422 75.1992C79.2266 75.1992 81.4531 74.9648 83.4219 74.4961C85.4141 74.0039 87.4648 73.2891 89.5742 72.3516V79.0664C87.6289 79.9805 85.6484 80.6484 83.6328 81.0703C81.6172 81.4922 79.2031 81.7031 76.3906 81.7031C72.5703 81.7031 69.207 80.9648 66.3008 79.4883C63.418 77.9883 61.1562 75.7617 59.5156 72.8086C57.8984 69.8555 57.0898 66.1875 57.0898 61.8047C57.0898 57.4453 57.8281 53.7422 59.3047 50.6953C60.7812 47.6484 62.8555 45.3281 65.5273 43.7344C68.1992 42.1406 71.3164 41.3438 74.8789 41.3438ZM74.8789 47.5664C72.2773 47.5664 70.168 48.4102 68.5508 50.0977C66.957 51.7852 66.0195 54.2578 65.7383 57.5156H83.457C83.4336 55.5703 83.1055 53.8477 82.4727 52.3477C81.8633 50.8477 80.9258 49.6758 79.6602 48.832C78.418 47.9883 76.8242 47.5664 74.8789 47.5664ZM123.605 36.0352C121.145 36.0352 118.941 36.4805 116.996 37.3711C115.074 38.2617 113.445 39.5508 112.109 41.2383C110.773 42.9023 109.754 44.9297 109.051 47.3203C108.348 49.6875 107.996 52.3594 107.996 55.3359C107.996 59.3203 108.559 62.7539 109.684 65.6367C110.809 68.4961 112.52 70.6992 114.816 72.2461C117.113 73.7695 120.02 74.5312 123.535 74.5312C125.715 74.5312 127.836 74.3203 129.898 73.8984C131.961 73.4766 134.094 72.9023 136.297 72.1758V79.3477C134.211 80.168 132.102 80.7656 129.969 81.1406C127.836 81.5156 125.375 81.7031 122.586 81.7031C117.336 81.7031 112.977 80.6133 109.508 78.4336C106.062 76.2539 103.484 73.1836 101.773 69.2227C100.086 65.2617 99.2422 60.6211 99.2422 55.3008C99.2422 51.4102 99.7812 47.8477 100.859 44.6133C101.938 41.3789 103.508 38.5898 105.57 36.2461C107.633 33.8789 110.176 32.0625 113.199 30.7969C116.246 29.5078 119.727 28.8633 123.641 28.8633C126.219 28.8633 128.75 29.1562 131.234 29.7422C133.742 30.3047 136.062 31.1133 138.195 32.168L135.242 39.1289C133.461 38.2852 131.598 37.5586 129.652 36.9492C127.707 36.3398 125.691 36.0352 123.605 36.0352ZM192.969 55.2305C192.969 59.1914 192.465 62.8008 191.457 66.0586C190.473 69.293 188.984 72.082 186.992 74.4258C185 76.7461 182.504 78.5391 179.504 79.8047C176.504 81.0703 172.988 81.7031 168.957 81.7031C164.855 81.7031 161.293 81.0703 158.27 79.8047C155.27 78.5391 152.773 76.7344 150.781 74.3906C148.812 72.0469 147.336 69.2461 146.352 65.9883C145.367 62.7305 144.875 59.1211 144.875 55.1602C144.875 49.8633 145.742 45.2461 147.477 41.3086C149.234 37.3477 151.895 34.2773 155.457 32.0977C159.043 29.8945 163.566 28.793 169.027 28.793C174.371 28.793 178.812 29.8828 182.352 32.0625C185.891 34.2422 188.539 37.3125 190.297 41.2734C192.078 45.2109 192.969 49.8633 192.969 55.2305ZM153.734 55.2305C153.734 59.1914 154.273 62.625 155.352 65.5312C156.43 68.4141 158.082 70.6406 160.309 72.2109C162.559 73.7578 165.441 74.5312 168.957 74.5312C172.496 74.5312 175.379 73.7578 177.605 72.2109C179.832 70.6406 181.473 68.4141 182.527 65.5312C183.582 62.625 184.109 59.1914 184.109 55.2305C184.109 49.207 182.902 44.4961 180.488 41.0977C178.098 37.6758 174.277 35.9648 169.027 35.9648C165.512 35.9648 162.617 36.7383 160.344 38.2852C158.094 39.832 156.43 42.0469 155.352 44.9297C154.273 47.7891 153.734 51.2227 153.734 55.2305Z" fill="black"/>
<rect x="158" y="56" width="4" height="22" rx="2" fill="black"/>
<rect x="176" y="49" width="4" height="31" rx="2" fill="black"/>
<rect x="164" y="45" width="4" height="34" rx="2" fill="black"/>
<rect x="170" y="53" width="4" height="26" rx="2" fill="black"/>
<path d="M199.727 96.3438C200.206 96.3438 200.68 96.3021 201.148 96.2188C201.617 96.125 202.044 96.0156 202.43 95.8906V98.6719C202.023 98.849 201.497 99 200.852 99.125C200.206 99.25 199.534 99.3125 198.836 99.3125C197.857 99.3125 196.977 99.151 196.195 98.8281C195.414 98.4948 194.794 97.9271 194.336 97.125C193.878 96.3229 193.648 95.2135 193.648 93.7969V84.5H191.289V82.8594L193.82 81.5625L195.023 77.8594H197.336V81.7031H202.289V84.5H197.336V93.75C197.336 94.625 197.555 95.276 197.992 95.7031C198.43 96.1302 199.008 96.3438 199.727 96.3438ZM220.086 98.9844L217.898 90.9375C217.794 90.5417 217.669 90.0625 217.523 89.5C217.378 88.9375 217.232 88.3594 217.086 87.7656C216.94 87.1615 216.805 86.6042 216.68 86.0938C216.565 85.5833 216.477 85.1875 216.414 84.9062H216.289C216.237 85.1875 216.154 85.5833 216.039 86.0938C215.924 86.6042 215.794 87.1615 215.648 87.7656C215.503 88.3698 215.357 88.9583 215.211 89.5312C215.076 90.1042 214.951 90.5938 214.836 91L212.539 98.9844H208.508L203.664 81.6875H207.383L209.633 90.2812C209.779 90.8646 209.919 91.4948 210.055 92.1719C210.201 92.849 210.326 93.4948 210.43 94.1094C210.534 94.724 210.612 95.2292 210.664 95.625H210.789C210.831 95.3438 210.888 94.9896 210.961 94.5625C211.034 94.125 211.117 93.6719 211.211 93.2031C211.305 92.724 211.398 92.276 211.492 91.8594C211.586 91.4323 211.674 91.0885 211.758 90.8281L214.414 81.6875H218.43L220.977 90.8281C221.091 91.224 221.216 91.724 221.352 92.3281C221.487 92.9219 221.607 93.5208 221.711 94.125C221.826 94.7188 221.898 95.2135 221.93 95.6094H222.055C222.096 95.2552 222.169 94.776 222.273 94.1719C222.388 93.5573 222.518 92.9062 222.664 92.2188C222.81 91.5208 222.961 90.875 223.117 90.2812L225.414 81.6875H229.07L224.195 98.9844H220.086ZM247.352 90.3125C247.352 91.75 247.164 93.026 246.789 94.1406C246.414 95.2552 245.867 96.1979 245.148 96.9688C244.43 97.7292 243.565 98.3125 242.555 98.7188C241.544 99.1146 240.404 99.3125 239.133 99.3125C237.945 99.3125 236.857 99.1146 235.867 98.7188C234.878 98.3125 234.018 97.7292 233.289 96.9688C232.57 96.1979 232.013 95.2552 231.617 94.1406C231.221 93.026 231.023 91.75 231.023 90.3125C231.023 88.4062 231.352 86.7917 232.008 85.4688C232.674 84.1354 233.622 83.1198 234.852 82.4219C236.081 81.724 237.544 81.375 239.242 81.375C240.836 81.375 242.242 81.724 243.461 82.4219C244.68 83.1198 245.633 84.1354 246.32 85.4688C247.008 86.8021 247.352 88.4167 247.352 90.3125ZM234.805 90.3125C234.805 91.5729 234.956 92.651 235.258 93.5469C235.57 94.4427 236.049 95.1302 236.695 95.6094C237.341 96.0781 238.174 96.3125 239.195 96.3125C240.216 96.3125 241.049 96.0781 241.695 95.6094C242.341 95.1302 242.815 94.4427 243.117 93.5469C243.419 92.651 243.57 91.5729 243.57 90.3125C243.57 89.0521 243.419 87.9844 243.117 87.1094C242.815 86.224 242.341 85.5521 241.695 85.0938C241.049 84.625 240.211 84.3906 239.18 84.3906C237.659 84.3906 236.549 84.901 235.852 85.9219C235.154 86.9427 234.805 88.4062 234.805 90.3125Z" fill="#0E0606"/>
</svg>
